<?xml version="1.0" encoding="utf-8"?>
<!-- Generator: Adobe Illustrator 25.3.1, SVG Export Plug-In . SVG Version: 6.00 Build 0)  -->
<svg version="1.1" id="Ebene_1" xmlns="http://www.w3.org/2000/svg" xmlns:xlink="http://www.w3.org/1999/xlink" x="0px" y="0px"
	 viewBox="0 0 234.35 102.93" style="enable-background:new 0 0 234.35 102.93;" xml:space="preserve">
<style type="text/css">
	.st0{clip-path:url(#SVGID_2_);fill:#374852;}
	.st1{clip-path:url(#SVGID_2_);fill:#13A538;}
</style>
<g>
	<defs>
		<rect id="SVGID_1_" x="20.13" y="19.87" width="361.89" height="63.78"/>
	</defs>
	<clipPath id="SVGID_2_">
		<use xlink:href="#SVGID_1_"  style="overflow:visible;"/>
	</clipPath>
	<path class="st0" d="M197.25,44.64c0,11.88-6.37,23.5-16.57,23.5c-5.65,0-8.56-3.36-8.56-10.07c0-10.71,5.65-22.77,16.48-22.77
		C194.61,35.29,197.25,39.38,197.25,44.64 M214.82,42.64c0-14.52-7.83-22.77-23.49-22.77c-20.94,0-36.97,19.32-36.97,41.19
		c0,13.79,7.29,22.59,23.77,22.59C198.07,83.65,214.82,66.5,214.82,42.64 M164.56,21.14h-20.94l-17.3,26.22l4.92-26.22h-16.57
		l-11.66,61.24h16.57l5.37-27.94l7.38,27.94h20.49L141.24,51.8L164.56,21.14z M83.24,21.14H67.12l-4.01,21.05
		c-0.73,3.81-1.46,8.53-1.82,12.7c-1-4.9-2.55-10.43-4.28-15.88l-5.56-17.87H31.79L20.13,82.38h16.03l4.74-24.68
		c0.73-3.99,1.09-6.08,1.46-9.71c0.82,4.08,2.1,8.98,3.55,13.79L52,82.38h19.49L83.24,21.14z"/>
	<path class="st1" d="M97.17,39.31c5.03,0,9.1-4.06,9.1-9.07s-4.08-9.07-9.1-9.07c-5.03,0-9.11,4.06-9.11,9.07
		S92.14,39.31,97.17,39.31"/>
	<path class="st1" d="M88.53,82.54c5.03,0,9.1-4.06,9.1-9.07s-4.08-9.07-9.1-9.07c-5.03,0-9.11,4.06-9.11,9.07
		S83.5,82.54,88.53,82.54"/>
	<path class="st1" d="M92.78,61.08c5.03,0,9.1-4.06,9.1-9.07s-4.08-9.07-9.1-9.07c-5.03,0-9.11,4.06-9.11,9.07
		S87.75,61.08,92.78,61.08"/>
</g>
</svg>
